<svg width="68" height="70" viewBox="0 0 68 70" fill="none" xmlns="http://www.w3.org/2000/svg">
<g filter="url(#filter0_d)">
<path d="M31.8055 17.2957C32.4195 16.7781 33.1968 16.4943 33.9999 16.4943C34.803 16.4943 35.5802 16.7781 36.1943 17.2957L46.4096 25.9144C47.1784 26.5606 47.6203 27.5125 47.6203 28.5174V43.3516C47.6203 44.054 47.3413 44.7277 46.8446 45.2243C46.348 45.721 45.6743 46 44.9719 46H40.4318C39.7293 46 39.0557 45.721 38.559 45.2243C38.0624 44.7277 37.7833 44.054 37.7833 43.3516V35.7847C37.7833 35.4837 37.6637 35.195 37.4509 34.9821C37.238 34.7692 36.9493 34.6496 36.6483 34.6496H31.3514C31.0504 34.6496 30.7617 34.7692 30.5488 34.9821C30.336 35.195 30.2164 35.4837 30.2164 35.7847V43.3516C30.2164 44.054 29.9374 44.7277 29.4407 45.2243C28.944 45.721 28.2704 46 27.568 46H23.0278C22.68 46 22.3356 45.9315 22.0143 45.7984C21.693 45.6653 21.401 45.4703 21.1551 45.2243C20.9092 44.9784 20.7141 44.6864 20.581 44.3651C20.4479 44.0438 20.3794 43.6994 20.3794 43.3516V28.5159C20.3794 27.5125 20.8213 26.5606 21.5901 25.9129L31.8055 17.2957Z" fill="#6A62B7"/>
</g>
<defs>
<filter id="filter0_d" x="0.379395" y="0.494263" width="67.2409" height="69.5058" filterUnits="userSpaceOnUse" color-interpolation-filters="sRGB">
<feFlood flood-opacity="0" result="BackgroundImageFix"/>
<feColorMatrix in="SourceAlpha" type="matrix" values="0 0 0 0 0 0 0 0 0 0 0 0 0 0 0 0 0 0 127 0"/>
<feOffset dy="4"/>
<feGaussianBlur stdDeviation="10"/>
<feColorMatrix type="matrix" values="0 0 0 0 0.724349 0 0 0 0 0.695833 0 0 0 0 1 0 0 0 0.5 0"/>
<feBlend mode="normal" in2="BackgroundImageFix" result="effect1_dropShadow"/>
<feBlend mode="normal" in="SourceGraphic" in2="effect1_dropShadow" result="shape"/>
</filter>
</defs>
</svg>
